<svg xmlns="http://www.w3.org/2000/svg" xmlns:xlink="http://www.w3.org/1999/xlink" width="130" height="104" viewBox="0 0 130 104">
  <defs>
    <clipPath id="clip-path">
      <rect id="Rectangle_3641" data-name="Rectangle 3641" width="130" height="104" transform="translate(97.043 210.034)" fill="#fff"/>
    </clipPath>
  </defs>
  <g id="clinic-illustration" transform="translate(-97.043 -210.034)" clip-path="url(#clip-path)">
    <g id="Group_74299" data-name="Group 74299" transform="translate(97.2 218.643)">
      <g id="Group_74291" data-name="Group 74291" transform="translate(36.676 0)">
        <g id="Group_74286" data-name="Group 74286" transform="translate(0 0)">
          <g id="Group_74280" data-name="Group 74280" transform="translate(0 6.973)">
            <g id="Group_74279" data-name="Group 74279">
              <path id="Path_11616" data-name="Path 11616" d="M224.108,259.3a2.948,2.948,0,0,0,2.948,2.948h58.428a2.948,2.948,0,0,0,2.948-2.948V206.564H224.108Z" transform="translate(-224.108 -189.841)" fill="#e8eff7"/>
              <path id="Path_11617" data-name="Path 11617" d="M285.484,142.824H227.056a2.948,2.948,0,0,0-2.948,2.948v13.775h64.324V145.772A2.948,2.948,0,0,0,285.484,142.824Z" transform="translate(-224.108 -142.824)" fill="#5d479f"/>
            </g>
          </g>
          <g id="Group_74285" data-name="Group 74285" transform="translate(12.413)">
            <g id="Group_74282" data-name="Group 74282">
              <ellipse id="Ellipse_328" data-name="Ellipse 328" cx="3.384" cy="3.384" rx="3.384" ry="3.384" transform="translate(2.071 12.356)" fill="#392674"/>
              <g id="Group_74281" data-name="Group 74281">
                <path id="Path_11618" data-name="Path 11618" d="M276.159,130.173h0a1.76,1.76,0,0,1-1.76-1.76v-7.359a1.807,1.807,0,0,1,1.409-1.8,1.763,1.763,0,0,1,2.111,1.726v2.233h2.98v-2.066a4.852,4.852,0,0,0-4.416-4.9,4.745,4.745,0,0,0-5.064,4.729v7.275a4.741,4.741,0,0,0,5.068,4.882,1.489,1.489,0,0,0-.16-2.969Z" transform="translate(-271.419 -116.245)" fill="#fff"/>
              </g>
            </g>
            <g id="Group_74284" data-name="Group 74284" transform="translate(26.987)">
              <ellipse id="Ellipse_329" data-name="Ellipse 329" cx="3.384" cy="3.384" rx="3.384" ry="3.384" transform="translate(2.071 12.356)" fill="#392674"/>
              <g id="Group_74283" data-name="Group 74283">
                <path id="Path_11619" data-name="Path 11619" d="M379.022,130.173h0a1.76,1.76,0,0,1-1.76-1.76v-7.359a1.807,1.807,0,0,1,1.409-1.8,1.763,1.763,0,0,1,2.111,1.726v2.233h2.98v-2.066a4.852,4.852,0,0,0-4.416-4.9,4.745,4.745,0,0,0-5.064,4.729v7.275a4.741,4.741,0,0,0,5.068,4.882,1.489,1.489,0,0,0-.16-2.969Z" transform="translate(-374.282 -116.245)" fill="#fff"/>
              </g>
            </g>
          </g>
        </g>
        <g id="Group_74290" data-name="Group 74290" transform="translate(11.398 31.673)">
          <g id="Group_74287" data-name="Group 74287">
            <rect id="Rectangle_3630" data-name="Rectangle 3630" width="9.622" height="9.622" rx="2" fill="#fff"/>
            <rect id="Rectangle_3631" data-name="Rectangle 3631" width="9.622" height="9.622" rx="2" transform="translate(0 14.165)" fill="#fff"/>
            <rect id="Rectangle_3632" data-name="Rectangle 3632" width="9.622" height="9.622" rx="2" transform="translate(0 28.329)" fill="#fff"/>
          </g>
          <g id="Group_74288" data-name="Group 74288" transform="translate(16.324)">
            <rect id="Rectangle_3633" data-name="Rectangle 3633" width="9.622" height="9.622" rx="2" fill="#fff"/>
            <rect id="Rectangle_3634" data-name="Rectangle 3634" width="9.622" height="9.622" rx="2" transform="translate(0 14.165)" fill="#fff"/>
            <rect id="Rectangle_3635" data-name="Rectangle 3635" width="9.622" height="9.622" rx="2" transform="translate(0 28.329)" fill="#fff"/>
          </g>
          <g id="Group_74289" data-name="Group 74289" transform="translate(32.649)">
            <rect id="Rectangle_3636" data-name="Rectangle 3636" width="9.622" height="9.622" rx="2" fill="#fff"/>
            <rect id="Rectangle_3637" data-name="Rectangle 3637" width="9.622" height="9.622" rx="2" transform="translate(0 14.165)" fill="#5d479f"/>
            <rect id="Rectangle_3638" data-name="Rectangle 3638" width="9.622" height="9.622" rx="2" transform="translate(0 28.329)" fill="#fff"/>
          </g>
        </g>
      </g>
      <g id="Group_74298" data-name="Group 74298" transform="translate(0 27.154)">
        <g id="Group_74292" data-name="Group 74292" transform="translate(24.67 4.71)">
          <rect id="Rectangle_3639" data-name="Rectangle 3639" width="6.494" height="4.277" transform="translate(2.752 1.499)" fill="#fff"/>
          <rect id="Rectangle_3640" data-name="Rectangle 3640" width="11.998" height="2.608" rx="1.304" fill="#a5aedb"/>
        </g>
        <g id="Group_74297" data-name="Group 74297" transform="translate(0 0)">
          <circle id="Ellipse_330" data-name="Ellipse 330" cx="21.632" cy="21.632" r="21.632" transform="translate(0 30.593) rotate(-45)" fill="#a5aedb"/>
          <ellipse id="Ellipse_331" data-name="Ellipse 331" cx="17.767" cy="17.767" rx="17.767" ry="17.767" transform="matrix(0.227, -0.974, 0.974, 0.227, 9.263, 43.872)" fill="#fff"/>
          <g id="Group_74296" data-name="Group 74296" transform="translate(15.632 15.563)">
            <g id="Group_74295" data-name="Group 74295" transform="translate(0 0)">
              <g id="Group_74293" data-name="Group 74293" transform="translate(14.012)">
                <ellipse id="Ellipse_332" data-name="Ellipse 332" cx="1.301" cy="1.301" rx="1.301" ry="1.301" fill="#ced9e7"/>
                <ellipse id="Ellipse_333" data-name="Ellipse 333" cx="1.301" cy="1.301" rx="1.301" ry="1.301" transform="translate(0 28.024)" fill="#ced9e7"/>
              </g>
              <g id="Group_74294" data-name="Group 74294" transform="translate(0 14.012)">
                <path id="Path_11620" data-name="Path 11620" d="M141.892,332.468a1.3,1.3,0,1,1-1.3,1.3A1.3,1.3,0,0,1,141.892,332.468Z" transform="translate(-140.591 -332.468)" fill="#ced9e7"/>
                <path id="Path_11621" data-name="Path 11621" d="M255.317,332.468a1.3,1.3,0,1,1-1.3,1.3A1.3,1.3,0,0,1,255.317,332.468Z" transform="translate(-225.992 -332.468)" fill="#ced9e7"/>
              </g>
            </g>
            <path id="Path_11622" data-name="Path 11622" d="M203.967,301.063l-7.3,8.559a1.148,1.148,0,1,0,1.912,1.153l5.644-9.53A.157.157,0,0,0,203.967,301.063Z" transform="translate(-182.576 -295.248)" fill="#5d479f" stroke="#5d479f" stroke-width="1"/>
          </g>
        </g>
      </g>
    </g>
    <g id="Ellipse_334" data-name="Ellipse 334" transform="translate(187.043 280.034)" fill="#fff" stroke="#707070" stroke-width="1">
      <circle cx="11" cy="11" r="11" stroke="none"/>
      <circle cx="11" cy="11" r="10.5" fill="none"/>
    </g>
    <path id="Path_11623" data-name="Path 11623" d="M18.211,34.422A16.211,16.211,0,1,0,2,18.211,16.211,16.211,0,0,0,18.211,34.422Zm7.512-18.831a2.026,2.026,0,1,0-2.866-2.866L16.185,19.4l-2.62-2.62A2.026,2.026,0,0,0,10.7,19.644L14.752,23.7a2.027,2.027,0,0,0,2.866,0Z" transform="translate(178.014 272.56)" fill="#00b074" fill-rule="evenodd"/>
  </g>
</svg>
