<svg xmlns="http://www.w3.org/2000/svg" width="22.008" height="22.008" viewBox="0 0 22.008 22.008">
  <g id="icons8-google" transform="translate(-4 -4)">
    <path id="Path_11506" data-name="Path 11506" d="M25.794,12.849h-.886V12.8H15v4.4h6.219a6.607,6.607,0,1,1-1.839-7.131L22.5,6.961A10.993,10.993,0,1,0,26.008,15,11.079,11.079,0,0,0,25.794,12.849Z" fill="#ffc107"/>
    <path id="Path_11507" data-name="Path 11507" d="M6.306,9.882l3.615,2.651a6.589,6.589,0,0,1,10.5-2.46l3.112-3.112A10.982,10.982,0,0,0,6.306,9.882Z" transform="translate(-1.037)" fill="#ff3d00"/>
    <path id="Path_11508" data-name="Path 11508" d="M15.991,36.827a10.952,10.952,0,0,0,7.378-2.857l-3.406-2.882a6.585,6.585,0,0,1-10.18-3.035L6.2,30.819A11,11,0,0,0,15.991,36.827Z" transform="translate(-0.987 -10.82)" fill="#4caf50"/>
    <path id="Path_11509" data-name="Path 11509" d="M34.79,20.046H33.9V20H24v4.4h6.219a6.624,6.624,0,0,1-2.249,3.065h0l3.406,2.882A10.645,10.645,0,0,0,35,22.2,11.079,11.079,0,0,0,34.79,20.046Z" transform="translate(-8.996 -7.197)" fill="#1976d2"/>
  </g>
</svg>
