<svg xmlns="http://www.w3.org/2000/svg" width="18" height="22" viewBox="0 0 18 22">
  <path id="icons8-apple-logo" d="M21.167,7.86a4.969,4.969,0,0,0-2.436,4.222,4.974,4.974,0,0,0,3,4.417,11.843,11.843,0,0,1-1.555,3.136c-.894,1.355-1.885,2.722-3.392,2.722-1.433,0-1.947-.9-3.6-.9-1.775,0-2.278.9-3.637.9-1.506,0-2.571-1.44-3.514-2.782a13.68,13.68,0,0,1-2.3-7.162,7.529,7.529,0,0,1,.93-3.954A5.537,5.537,0,0,1,9.241,5.675c1.445-.049,2.73.988,3.612.988.845,0,2.424-.988,4.212-.988A4.916,4.916,0,0,1,21.167,7.86ZM12.731,5.4a4.336,4.336,0,0,1,1.114-3.38A4.706,4.706,0,0,1,17.175.356a4.768,4.768,0,0,1-1.224,3.453A3.767,3.767,0,0,1,12.731,5.4Z" transform="translate(-3.73 -0.356)"/>
</svg>
