<svg xmlns="http://www.w3.org/2000/svg" width="18" height="18" viewBox="0 0 18 18">
  <path id="Path_11595" data-name="Path 11595" d="M3,4.778A1.778,1.778,0,0,1,4.778,3H7.693a.889.889,0,0,1,.843.608L9.867,7.6a.889.889,0,0,1-.446,1.076l-2.006,1a9.815,9.815,0,0,0,4.9,4.9l1-2.006a.889.889,0,0,1,1.076-.446l3.994,1.331a.889.889,0,0,1,.608.843v2.915A1.778,1.778,0,0,1,17.222,19h-.889A13.333,13.333,0,0,1,3,5.667Z" transform="translate(-2 -2)" fill="none" stroke="#0a2440" stroke-linecap="round" stroke-linejoin="round" stroke-width="2"/>
</svg>
