<svg xmlns="http://www.w3.org/2000/svg" width="22.829" height="22" viewBox="0 0 22.829 22">
  <path id="Path_11493" data-name="Path 11493" d="M3,13l2.222-2.222m0,0L13,3l7.778,7.778m-15.556,0V21.889A1.111,1.111,0,0,0,6.333,23H9.667M20.778,10.778,23,13m-2.222-2.222V21.889A1.111,1.111,0,0,1,19.667,23H16.333M9.667,23a1.111,1.111,0,0,0,1.111-1.111V17.444a1.111,1.111,0,0,1,1.111-1.111h2.222a1.111,1.111,0,0,1,1.111,1.111v4.444A1.111,1.111,0,0,0,16.333,23M9.667,23h6.667" transform="translate(-1.586 -2)" fill="none" stroke="#99a8bc" stroke-linecap="round" stroke-linejoin="round" stroke-width="2"/>
</svg>
